<svg width="24" height="24" viewBox="0 0 24 24" fill="none" xmlns="http://www.w3.org/2000/svg">
<path d="M23.9824 5.17009C23.9824 5.14267 24.0012 5.11598 24 5.08887L16.676 12.1459L23.9912 18.9775C23.9955 18.9287 23.9824 18.8795 23.9824 18.8297V5.17009Z" fill="#4F4F4F"/>
<path d="M15.5579 13.2319L12.568 16.1086C12.4167 16.2541 12.2213 16.3271 12.0258 16.3271C11.8343 16.3271 11.6429 16.2572 11.4927 16.1172L8.51092 13.3387L1.14795 20.4358C1.32698 20.5001 1.51915 20.5501 1.7204 20.5501H22.3313C22.6301 20.5501 22.9104 20.459 23.1541 20.3233L15.5579 13.2319Z" fill="#4F4F4F"/>
<path d="M12.0173 14.4682L23.1947 3.7011C22.9416 3.55064 22.6471 3.44971 22.3313 3.44971H1.72045C1.30931 3.44971 0.932578 3.60935 0.63916 3.85282L12.0173 14.4682Z" fill="#4F4F4F"/>
<path d="M0 5.43213V18.8293C0 18.9831 0.0353478 19.1313 0.0737194 19.273L7.34535 12.2706L0 5.43213Z" fill="#4F4F4F"/>
</svg>
