<svg width="24" height="24" viewBox="0 0 24 24" fill="none" xmlns="http://www.w3.org/2000/svg">
<g clip-path="url(#clip0_39_26)">
<path d="M2.8522 4.07812H2.8433C1.27552 4.07812 0 5.35359 0 6.92133V22.3613C0 23.2649 0.735141 24 1.6387 24H4.05675C4.96036 24 5.69545 23.2649 5.69545 22.3613V6.92133C5.69545 5.35359 4.41998 4.07812 2.8522 4.07812Z" fill="#4F4F4F"/>
<path d="M23.2969 6.89062H22.5937V12.5921H8.50806V6.89062H7.10181V12.5921V13.4076V23.2968C7.10181 23.6851 7.41662 23.9999 7.80493 23.9999H23.2969C23.6852 23.9999 24.0001 23.6851 24.0001 23.2968V13.0726V12.5921V7.59375C24.0001 7.20544 23.6852 6.89062 23.2969 6.89062ZM11.1219 20.8382C10.9911 20.969 10.8097 21.044 10.625 21.044C10.4398 21.044 10.2584 20.969 10.1276 20.8382C9.99685 20.7069 9.92185 20.526 9.92185 20.3408C9.92185 20.1557 9.99685 19.9743 10.1276 19.8435C10.2584 19.7128 10.4398 19.6377 10.625 19.6377C10.8101 19.6377 10.9911 19.7127 11.1219 19.8435C11.2531 19.9743 11.3281 20.1557 11.3281 20.3408C11.3281 20.526 11.2531 20.7069 11.1219 20.8382ZM11.1219 18.0252C10.9911 18.1565 10.8101 18.2315 10.625 18.2315C10.4398 18.2315 10.2584 18.1565 10.1276 18.0252C9.99685 17.8944 9.92185 17.7135 9.92185 17.5283C9.92185 17.3432 9.99685 17.1618 10.1276 17.031C10.2584 16.9003 10.4398 16.8252 10.625 16.8252C10.8101 16.8252 10.9911 16.9002 11.1219 17.031C11.2526 17.1618 11.3281 17.3432 11.3281 17.5283C11.3281 17.7135 11.2526 17.8944 11.1219 18.0252ZM11.1219 15.2127C10.9911 15.3435 10.8101 15.419 10.625 15.419C10.4398 15.419 10.2584 15.3435 10.1276 15.2127C9.99685 15.0819 9.92185 14.9005 9.92185 14.7158C9.92185 14.5307 9.99685 14.3493 10.1276 14.2185C10.2584 14.0878 10.4398 14.0127 10.625 14.0127C10.8097 14.0127 10.9911 14.0877 11.1219 14.2185C11.2526 14.3493 11.3281 14.5307 11.3281 14.7158C11.3281 14.9005 11.2526 15.0819 11.1219 15.2127ZM13.9344 20.8382C13.8037 20.969 13.6223 21.044 13.4376 21.044C13.2524 21.044 13.071 20.969 12.9402 20.8382C12.8094 20.7069 12.7344 20.526 12.7344 20.3408C12.7344 20.1557 12.8094 19.9743 12.9402 19.8435C13.071 19.7128 13.2524 19.6377 13.4376 19.6377C13.6227 19.6377 13.8037 19.7127 13.9344 19.8435C14.0657 19.9743 14.1407 20.1557 14.1407 20.3408C14.1407 20.526 14.0657 20.7069 13.9344 20.8382ZM13.9344 18.0252C13.8037 18.1565 13.6223 18.2315 13.4376 18.2315C13.2524 18.2315 13.071 18.1565 12.9402 18.0252C12.8094 17.8944 12.7344 17.7135 12.7344 17.5283C12.7344 17.3432 12.8094 17.1618 12.9402 17.031C13.071 16.9003 13.2524 16.8252 13.4376 16.8252C13.6223 16.8252 13.8037 16.9002 13.9344 17.031C14.0652 17.1618 14.1407 17.3432 14.1407 17.5283C14.1407 17.7135 14.0652 17.8944 13.9344 18.0252ZM13.9344 15.2127C13.8037 15.3435 13.6227 15.419 13.4376 15.419C13.2524 15.419 13.071 15.3435 12.9402 15.2127C12.8094 15.0819 12.7344 14.9005 12.7344 14.7158C12.7344 14.5307 12.8094 14.3493 12.9402 14.2185C13.071 14.0878 13.2524 14.0127 13.4376 14.0127C13.6227 14.0127 13.8037 14.0877 13.9344 14.2185C14.0657 14.3493 14.1407 14.5307 14.1407 14.7158C14.1407 14.9005 14.0657 15.0819 13.9344 15.2127ZM16.747 20.8382C16.6162 20.969 16.4348 21.044 16.2501 21.044C16.065 21.044 15.8836 20.969 15.7528 20.8382C15.622 20.7069 15.547 20.526 15.547 20.3408C15.547 20.1557 15.622 19.9743 15.7528 19.8435C15.8836 19.7128 16.065 19.6377 16.2501 19.6377C16.4348 19.6377 16.6162 19.7127 16.747 19.8435C16.8778 19.9743 16.9532 20.1557 16.9532 20.3408C16.9532 20.526 16.8778 20.7069 16.747 20.8382ZM16.747 18.0252C16.6162 18.1565 16.4348 18.2315 16.2501 18.2315C16.065 18.2315 15.8836 18.1565 15.7528 18.0252C15.622 17.8944 15.547 17.7135 15.547 17.5283C15.547 17.3432 15.622 17.1618 15.7528 17.031C15.8836 16.9003 16.065 16.8252 16.2501 16.8252C16.4348 16.8252 16.6162 16.9002 16.747 17.031C16.8778 17.1618 16.9532 17.3432 16.9532 17.5283C16.9532 17.7135 16.8778 17.8944 16.747 18.0252ZM16.747 15.2127C16.6162 15.3435 16.4352 15.419 16.2501 15.419C16.065 15.419 15.8836 15.3435 15.7528 15.2127C15.622 15.0819 15.547 14.9005 15.547 14.7158C15.547 14.5307 15.622 14.3493 15.7528 14.2185C15.8836 14.0878 16.065 14.0127 16.2501 14.0127C16.4348 14.0127 16.6162 14.0877 16.747 14.2185C16.8778 14.3493 16.9532 14.5307 16.9532 14.7158C16.9532 14.9005 16.8778 15.0819 16.747 15.2127ZM20.4842 18.2314H19.0625C18.6741 18.2314 18.3594 17.9166 18.3594 17.5282C18.3594 17.1399 18.6742 16.8251 19.0625 16.8251H20.4842C20.8725 16.8251 21.1873 17.1399 21.1873 17.5282C21.1874 17.9166 20.8726 18.2314 20.4842 18.2314ZM20.4842 15.4188H19.0625C18.6741 15.4188 18.3594 15.104 18.3594 14.7157C18.3594 14.3274 18.6742 14.0126 19.0625 14.0126H20.4842C20.8725 14.0126 21.1873 14.3274 21.1873 14.7157C21.1874 15.104 20.8726 15.4188 20.4842 15.4188Z" fill="#4F4F4F"/>
<path d="M21.1873 0.703125C21.1873 0.314812 20.8724 0 20.4841 0H10.6174C10.2291 0 9.91431 0.314812 9.91431 0.703125V11.1859H21.1873V0.703125H21.1873ZM17.6715 9.84403H13.2485C12.8602 9.84403 12.5453 9.52922 12.5453 9.14091C12.5453 8.75259 12.8602 8.43778 13.2485 8.43778H17.6715C18.0599 8.43778 18.3747 8.75259 18.3747 9.14091C18.3747 9.52922 18.0599 9.84403 17.6715 9.84403ZM17.6715 7.03144H13.2485C12.8602 7.03144 12.5453 6.71662 12.5453 6.32831C12.5453 5.94 12.8602 5.62519 13.2485 5.62519H17.6715C18.0599 5.62519 18.3747 5.94 18.3747 6.32831C18.3747 6.71662 18.0599 7.03144 17.6715 7.03144ZM17.6715 4.21884H13.2485C12.8602 4.21884 12.5453 3.90403 12.5453 3.51572C12.5453 3.12741 12.8602 2.81259 13.2485 2.81259H17.6715C18.0599 2.81259 18.3747 3.12741 18.3747 3.51572C18.3747 3.90403 18.0599 4.21884 17.6715 4.21884Z" fill="#4F4F4F"/>
</g>
<defs>
<clipPath id="clip0_39_26">
<rect width="24" height="24" fill="white"/>
</clipPath>
</defs>
</svg>
