<svg width="87" height="74" viewBox="0 0 87 74" fill="none" xmlns="http://www.w3.org/2000/svg">
<circle opacity="0.1" cx="54" cy="41" r="33" fill="#D4805B"/>
<path d="M69.3291 33.3291C69.3291 24.4266 65.8623 16.057 59.5672 9.76191C53.2721 3.46683 44.9026 0 36 0C27.0975 0 18.7279 3.46683 12.4328 9.76191C6.13773 16.057 2.6709 24.4266 2.6709 33.3291C2.6709 40.3412 4.82401 47.0503 8.89735 52.731C12.8825 58.2886 18.3786 62.4365 24.7915 64.726C25.8884 65.1172 27.0955 64.5458 27.4873 63.4487C27.8791 62.3514 27.3071 61.1446 26.21 60.7528C22.7873 59.5309 19.664 57.7012 16.957 55.3552L20.5154 51.7967C21.339 50.973 21.339 49.6374 20.5154 48.8136C19.6917 47.99 18.3561 47.99 17.5323 48.8136L13.9771 52.3687C13.3985 51.6982 12.8471 50.9996 12.3258 50.2726C9.18001 45.8855 7.34724 40.7945 6.96573 35.4385H15.9697C17.1346 35.4385 18.079 34.494 18.079 33.3291C18.079 32.1642 17.1346 31.2197 15.9697 31.2197H6.96657C7.43021 24.777 9.99873 18.908 13.9877 14.2999L17.5323 17.8445C17.9442 18.2564 18.484 18.4624 19.0238 18.4624C19.5635 18.4624 20.1035 18.2564 20.5154 17.8445C21.339 17.0208 21.339 15.6852 20.5154 14.8614L16.9708 11.3168C21.5789 7.32783 27.4479 4.75931 33.8906 4.29567V13.2986C33.8906 14.4636 34.8351 15.408 36 15.408C37.1649 15.408 38.1094 14.4636 38.1094 13.2986V4.29567C44.5521 4.75931 50.4211 7.32783 55.0292 11.3168L51.4846 14.8612C50.6609 15.6849 50.6609 17.0204 51.4846 17.8443C51.8965 18.2564 52.4364 18.4622 52.9761 18.4622C53.5158 18.4622 54.0558 18.2562 54.4676 17.8443L58.0122 14.2999C62.0011 18.908 64.5697 24.777 65.0333 31.2197H56.0303C54.8654 31.2197 53.921 32.1642 53.921 33.3291C53.921 34.494 54.8654 35.4385 56.0303 35.4385H65.0341C64.5715 41.8693 62.0106 47.7467 58.0184 52.3645L54.4674 48.8136C53.6438 47.99 52.3081 47.99 51.4844 48.8136C50.6606 49.6372 50.6606 50.9729 51.4844 51.7967L55.036 55.3483C51.292 58.5914 46.7083 60.8979 41.6395 61.892L42.8331 60.6982C43.6569 59.8745 43.6569 58.539 42.8331 57.7152C42.0095 56.8915 40.6738 56.8915 39.85 57.7152L34.5081 63.0571C33.6845 63.8807 33.6845 65.2164 34.5081 66.0402L39.8499 71.382C40.2618 71.7938 40.8016 71.9999 41.3414 71.9999C41.8811 71.9999 42.4211 71.7938 42.8328 71.382C43.6566 70.5583 43.6566 69.2227 42.8328 68.3989L40.753 66.319C56.9872 64.0024 69.3291 50.0205 69.3291 33.3291Z" fill="#D4805B"/>
<path d="M38.8205 33.5509C36.9122 32.8763 34.8015 32.0614 33.6183 31.1334C33.2464 30.8417 33.0855 30.1738 33.2178 29.4714C33.2838 29.1211 33.5924 27.9497 34.7904 27.5887C36.7579 26.9958 38.1064 27.7819 38.595 28.1474C39.5284 28.8452 40.85 28.654 41.5476 27.7211C42.2451 26.7881 42.0544 25.4662 41.1214 24.7686C40.6785 24.4375 39.5696 23.7116 37.9795 23.3592V22.5009C37.9795 21.3359 37.0351 20.3915 35.8701 20.3915C34.7052 20.3915 33.7608 21.3359 33.7608 22.5009V23.4969C33.6985 23.5143 33.6366 23.5304 33.5736 23.5494C31.2633 24.2453 29.5384 26.2152 29.0719 28.6902C28.6427 30.9683 29.3871 33.1765 31.0145 34.453C32.3551 35.5046 34.2092 36.3956 37.4142 37.5286C39.5479 38.2828 39.5016 40.0096 39.3827 40.717C39.1415 42.1512 37.9351 43.7012 35.8559 43.715C33.8166 43.7275 33.1817 43.6277 31.6153 42.6031C30.6403 41.9652 29.3331 42.2387 28.6953 43.2135C28.0576 44.1885 28.331 45.4957 29.3058 46.1336C30.9952 47.2388 32.2417 47.6871 33.7606 47.8505V48.8146C33.7606 49.9795 34.7051 50.924 35.87 50.924C37.0349 50.924 37.9794 49.9795 37.9794 48.8146V47.6478C39.1415 47.3279 40.2006 46.7435 41.1056 45.9117C42.3881 44.7332 43.2538 43.1369 43.5431 41.4163C44.1313 37.9181 42.2333 34.7573 38.8205 33.5509Z" fill="#D4805B"/>
</svg>
